<svg xmlns="http://www.w3.org/2000/svg" viewBox="0 0 191.75 29.49"><defs><style>.cls-1{fill:#c13426;}</style></defs><title>Asset 1</title><g id="Layer_2" data-name="Layer 2"><g id="Layer_1-2" data-name="Layer 1"><path class="cls-1" d="M129.43,29.49h-4.84c.17-1.34-.52-3.16-1.16-5.1-2.33-7.11-4.91-14.67-7.26-21.77A8,8,0,0,0,115,0h5.82s3.55,11.85,5.31,17.56c.56,1.83,1.11,3.66,1.67,5.49.05.18.14.34.27.66.25-.72.46-1.29.65-1.87C131.06,14.71,133.61,7.14,136,0h3.87c-1.18.89-4.18,10.78-6.15,16.16-2.25,6.41-4.61,11.61-4.26,13.32"/><path class="cls-1" d="M32.66,0h4.47s.08.2.14.36Q39.17,4.83,41,9.31q3.8,9.11,7.61,18.21a6.73,6.73,0,0,0,1.22,2h-6.4a3.29,3.29,0,0,0-.23-2.3c-.83-2.13-2.84-6.78-2.84-6.78H30.23s-1.91,4.62-2.9,7a6.2,6.2,0,0,0-.59,2H22.42a10.53,10.53,0,0,0,1.8-3.2Q28.62,15.6,33,4.9c.67-1.64.7-3.79-.31-4.9M31.32,17.49h7.73c-1.26-3.37-2.4-6.59-3.71-10.07-1.36,3.47-2.7,6.69-4,10.07"/><path class="cls-1" d="M95.94,0h4.47s.08.2.14.36q1.88,4.47,3.74,8.94,3.8,9.11,7.61,18.21a6.73,6.73,0,0,0,1.22,2h-6.4a3.29,3.29,0,0,0-.23-2.3c-.83-2.13-2.84-6.78-2.84-6.78H93.51s-1.91,4.62-2.9,7a6.2,6.2,0,0,0-.59,2H85.7a10.53,10.53,0,0,0,1.8-3.2Q91.89,15.6,96.25,4.9c.67-1.64.7-3.79-.31-4.9M94.6,17.49h7.73c-1.26-3.37-2.4-6.59-3.71-10.07-1.36,3.47-2.7,6.69-4,10.07"/><path class="cls-1" d="M166.34,1.91l.75-1.9H147.28a2.06,2.06,0,0,1,.5,1.4V27.18a4.89,4.89,0,0,1-.5,2.31h18.32l.75-1.9H152.49V14.51h11.28l.75-1.9h-12V1.91Z"/><path class="cls-1" d="M20.14,6.94a6.67,6.67,0,0,0-2.58-4.65,11.38,11.38,0,0,0-7-2.25C8.79,0,6.94,0,5.19,0H0a2.05,2.05,0,0,1,.5,1.4V27.23A4.49,4.49,0,0,1,0,29.49H5.72a4.51,4.51,0,0,1-.5-2.25V16.64H8.39A17.94,17.94,0,0,0,13.33,16a9.92,9.92,0,0,0,4.81-2.7,7.63,7.63,0,0,0,2-6.38M9.47,14.5a19.33,19.33,0,0,1-4.25.19v-13h0s0,0,0,0A46.48,46.48,0,0,1,10,1.92a6,6,0,0,1,5.19,6c.13,3.77-2.41,6-5.77,6.59"/><path class="cls-1" d="M180.14,27.58V1.41a2.06,2.06,0,0,1,.5-1.4h-5.72a2.06,2.06,0,0,1,.5,1.4V27.18a4.88,4.88,0,0,1-.5,2.31H191l.75-1.9Z"/><path class="cls-1" d="M78.75,27.1A39,39,0,0,1,75.24,23a76,76,0,0,0-6-6.83,10.22,10.22,0,0,0,1.31-.26,9.93,9.93,0,0,0,4.86-2.62,7.62,7.62,0,0,0,2-6.38,6.68,6.68,0,0,0-2.58-4.65,11.38,11.38,0,0,0-7-2.24c-1.76,0-3.59,0-5.35,0H57.28a2.06,2.06,0,0,1,.5,1.4V27.24a4.46,4.46,0,0,1-.5,2.25H63a4.46,4.46,0,0,1-.5-2.25V16.34h.12a2.35,2.35,0,0,1,.91.18,2.46,2.46,0,0,1,.94.71c3.89,4.61,5.06,6.2,5.06,6.2a33.16,33.16,0,0,0,4,4.77c.56.55,1.05,1,1.39,1.26h6.48a34.27,34.27,0,0,1-2.68-2.38M62.5,14.46V1.66a47.06,47.06,0,0,1,4.83.25,5.92,5.92,0,0,1,5.19,6c0,4.34-2.41,5.75-5.77,6.37a19.57,19.57,0,0,1-4.25.19"/></g></g></svg>